<svg width="20" height="20" viewBox="0 0 20 20" stroke="white" stroke-width="2%" fill="#ffffff" xmlns="http://www.w3.org/2000/svg">
<path  d="M10 16.25C9.27 16.25 8.565 16.165 7.8875 16.0206L4.945 17.7894L4.98437 14.89C2.72875 13.5338 1.25 11.2912 1.25 8.75C1.25 4.60813 5.1675 1.25 10 1.25C14.8325 1.25 18.75 4.60813 18.75 8.75C18.75 12.8925 14.8325 16.25 10 16.25ZM10 0C4.4775 0 0 3.91813 0 8.75C0 11.5119 1.46563 13.9713 3.75 15.5744V20L8.13063 17.3419C8.73688 17.4419 9.36062 17.5 10 17.5C15.5225 17.5 20 13.5825 20 8.75C20 3.91813 15.5225 0 10 0Z" fill="#495567"/>
</svg>
