  <svg class="heart-icon stroke" viewBox="0 0 24 24">
    <defs>
      <clipPath id="mask">
        <path d="M12 4.435c-1.989-5.399-12-4.597-12 3.568 0 4.068 3.06 9.481 12 14.997 8.94-5.516 12-10.929 12-14.997 0-8.118-10-8.999-12-3.568z"/>
      </clipPath>
    </defs>
    <circle id="first-stroke" r="0" cx="12" cy="12" clip-path="url(#mask)"></circle>
    <circle id="second-stroke" r="0" cx="12" cy="12" clip-path="url(#mask)"></circle>
  </svg>
  <svg class="heart-icon red" viewBox="0 0 24 24">
    <path d="M12 4.435c-1.989-5.399-12-4.597-12 3.568 0 4.068 3.06 9.481 12 14.997 8.94-5.516 12-10.929 12-14.997 0-8.118-10-8.999-12-3.568z"/>
  </svg>
  <svg class="heart-icon" viewBox="0 0 24 24">
    <path d="M12 4.435c-1.989-5.399-12-4.597-12 3.568 0 4.068 3.06 9.481 12 14.997 8.94-5.516 12-10.929 12-14.997 0-8.118-10-8.999-12-3.568z"/>
  </svg>